<?xml version="1.0" encoding="UTF-8"?>
<svg width="24px" height="24px" viewBox="0 0 24 24" version="1.1" xmlns="http://www.w3.org/2000/svg">
    <title>Public/ic_public_share</title>
    <path d="M18,7.5 C19.6568542,7.5 21,6.15685425 21,4.5 C21,2.84314575 19.6568542,1.5 18,1.5 C16.3431458,1.5 15,2.84314575 15,4.5 C15,4.6723901 15.0146721,4.8414061 15.0429442,5.00594873 L8.9375,8.5625 C8.33578644,7.91071429 7.46428571,7.5 6.5,7.5 C4.84314575,7.5 3.5,8.84314575 3.5,10.5 C3.5,12.1568542 4.84314575,13.5 6.5,13.5 C7.46428571,13.5 8.33578644,13.0892857 8.9375,12.4375 L15.0429442,15.9940513 C15.0146721,16.1585939 15,16.3276099 15,16.5 C15,18.1568542 16.3431458,19.5 18,19.5 C19.6568542,19.5 21,18.1568542 21,16.5 C21,14.8431458 19.6568542,13.5 18,13.5 C17.0357143,13.5 16.1642136,13.9107143 15.5625,14.5625 L9.45705582,11.0059487 C9.48532793,10.8414061 9.5,10.6723901 9.5,10.5 C9.5,10.3276099 9.48532793,10.1585939 9.45705582,9.99405127 L15.5625,6.4375 C16.1642136,7.08928571 17.0357143,7.5 18,7.5 Z M18,3 C18.8284271,3 19.5,3.67157288 19.5,4.5 C19.5,5.32842712 18.8284271,6 18,6 C17.1715729,6 16.5,5.32842712 16.5,4.5 C16.5,3.67157288 17.1715729,3 18,3 Z M6.5,9 C7.32842712,9 8,9.67157288 8,10.5 C8,11.3284271 7.32842712,12 6.5,12 C5.67157288,12 5,11.3284271 5,10.5 C5,9.67157288 5.67157288,9 6.5,9 Z M18,15 C18.8284271,15 19.5,15.6715729 19.5,16.5 C19.5,17.3284271 18.8284271,18 18,18 C17.1715729,18 16.5,17.3284271 16.5,16.5 C16.5,15.6715729 17.1715729,15 18,15 Z" fill="#000000" fill-rule="nonzero"></path>
</svg>
